<?xml version="1.0" encoding="UTF-8"?>
<!DOCTYPE svg PUBLIC "-//W3C//DTD SVG 1.1//EN" "http://www.w3.org/Graphics/SVG/1.1/DTD/svg11.dtd">
<!-- Creator: CorelDRAW -->
<svg xmlns="http://www.w3.org/2000/svg" xml:space="preserve" width="246.224mm" height="219.175mm" version="1.1" style="shape-rendering:geometricPrecision; text-rendering:geometricPrecision; image-rendering:optimizeQuality; fill-rule:evenodd; clip-rule:evenodd"
viewBox="0 0 2395.38 2132.24"
 xmlns:xlink="http://www.w3.org/1999/xlink"
 xmlns:xodm="http://www.corel.com/coreldraw/odm/2003">
 <defs>
  <style type="text/css">
   <![CDATA[
    .fil0 {fill:none}
    .fil1 {fill:#95C49D}
    .fil2 {fill:white;fill-rule:nonzero}
   ]]>
  </style>
 </defs>
 <g id="Layer_x0020_1">
  <metadata id="CorelCorpID_0Corel-Layer"/>
  <g id="_2456085024832">
   <g>
    <rect class="fil0" width="2395.38" height="2132.24"/>
    <path class="fil1" d="M1212.22 1224.34c0.59,4.08 1.15,13.16 0.83,15.9 -0.36,3.16 -1.21,15.39 -2.81,20.01 -1.6,4.62 -12.98,15.51 -15.58,26.87 -2.61,11.36 -2.8,21.79 -3.48,27.75 -0.68,5.95 -12.48,11.56 -17.75,15.95 -5.27,4.38 -13.94,9.46 -19,12.67 -5.06,3.21 -17.3,7.98 -20.13,11.57 -2.84,3.58 -2.21,5.17 -14.24,7.03 -12.04,1.86 -14.24,0.74 -21.76,-0.36 -7.53,-1.1 -16.06,-5.28 -20.2,-1.64 -4.14,3.64 -6.71,7.21 -3.92,10.05 2.8,2.84 7.42,21.25 7.93,25.04 0.5,3.79 1.07,9.54 2.47,10.57 1.4,1.03 11.06,10.39 14.37,16.37 3.32,5.97 7.64,12.11 8.18,16.5 0.41,3.33 1.92,17.29 2.62,23.81l1.32 0.65 0 0 38.69 18.96 10.1 25.24 27.49 4.49c0,0 36.47,33.1 39.83,33.1 1.86,0 12.41,-0.85 21.51,-1.62 7.4,-0.62 13.83,-1.19 13.83,-1.19 0,0 30.3,-14.59 39.27,-11.78 8.98,2.8 26.93,2.24 35.9,1.68 8.98,-0.56 50.49,-20.76 50.49,-20.76l16.27 -35.9c0,0 54.42,-0.56 54.98,-3.93 0.56,-3.37 3.37,-37.59 7.85,-35.9 4.49,1.68 21.88,21.88 21.88,21.88 0,0 12.9,14.58 23,4.49 10.1,-10.1 17.39,-19.07 17.39,-19.07l-5.61 -25.81 8.98 -15.71 47.12 -20.2 30.85 -18.51 65.08 5.61 20.21 -23.42c-1.34,-6.81 -2.81,-15.8 -4.81,-32.37 -3.84,-31.84 -11.51,-65.99 -11.51,-65.99 0,0 -8.44,-7.67 -28.01,-9.21 -19.56,-1.53 -95.53,-13.43 -118.16,-26.85 -13.04,-7.74 -20.48,-15.86 -24.51,-22.45 -0.62,-1.01 -1.16,-1.98 -1.62,-2.91 0,0 -6.86,-1.64 -10.57,-3.23 -3.71,-1.59 -59.55,0.37 -67.26,-0.25 -7.71,-0.62 -2.74,13.51 -3.27,25.7 -0.53,12.2 -44.54,31.29 -58.86,35.53 -14.32,4.24 -29.16,-12.2 -53.56,-21.21 -24.39,-9.02 -28.1,-7.42 -48.74,-7.88 -20.64,-0.46 -23.37,5.76 -46.31,9.77 -2.49,0.44 -4.74,0.75 -6.79,0.97z"/>
   </g>
   <path class="fil2" d="M1368.49 1332.08c0.26,-5.14 2.07,-9.12 5.44,-11.92 3.37,-2.8 7.81,-4.21 13.31,-4.21 3.76,0 6.97,0.66 9.65,1.97 2.67,1.31 4.69,3.09 6.06,5.32 1.36,2.24 2.04,4.77 2.04,7.6 0,3.24 -0.84,5.98 -2.51,8.22 -1.67,2.24 -3.66,3.74 -5.98,4.51l0 0.31c2.98,0.93 5.31,2.57 6.98,4.94 1.67,2.37 2.51,5.4 2.51,9.1 0,3.09 -0.71,5.84 -2.12,8.26 -1.41,2.42 -3.5,4.31 -6.25,5.67 -2.75,1.36 -6.06,2.04 -9.92,2.04 -5.81,0 -10.55,-1.47 -14.2,-4.4 -3.65,-2.93 -5.58,-7.25 -5.79,-12.96l10.49 0c0.1,2.52 0.97,4.54 2.58,6.06 1.62,1.52 3.85,2.28 6.67,2.28 2.62,0 4.64,-0.73 6.06,-2.2 1.42,-1.47 2.12,-3.36 2.12,-5.67 0,-3.09 -0.98,-5.3 -2.93,-6.64 -1.96,-1.34 -4.99,-2.01 -9.11,-2.01l-2.24 0 0 -8.87 2.24 0c7.31,0 10.96,-2.44 10.96,-7.33 0,-2.21 -0.66,-3.94 -1.97,-5.17 -1.31,-1.23 -3.2,-1.85 -5.67,-1.85 -2.42,0 -4.28,0.66 -5.59,1.97 -1.31,1.31 -2.07,2.97 -2.28,4.98l-10.57 0z"/>
  </g>
 </g>
</svg>
