<?xml version="1.0" encoding="UTF-8"?>
<!DOCTYPE svg PUBLIC "-//W3C//DTD SVG 1.1//EN" "http://www.w3.org/Graphics/SVG/1.1/DTD/svg11.dtd">
<!-- Creator: CorelDRAW -->
<svg xmlns="http://www.w3.org/2000/svg" xml:space="preserve" width="81.544mm" height="81.0814mm" version="1.1" style="shape-rendering:geometricPrecision; text-rendering:geometricPrecision; image-rendering:optimizeQuality; fill-rule:evenodd; clip-rule:evenodd"
viewBox="0 0 2318.09 2304.94"
 xmlns:xlink="http://www.w3.org/1999/xlink"
 xmlns:xodm="http://www.corel.com/coreldraw/odm/2003">
 <defs>
  <style type="text/css">
   <![CDATA[
    .str0 {stroke:white;stroke-width:75.21;stroke-linecap:round;stroke-linejoin:round;stroke-miterlimit:22.9256}
    .fil3 {fill:none}
    .fil0 {fill:#B3B3B3}
    .fil2 {fill:#CCCCCC}
    .fil1 {fill:white}
   ]]>
  </style>
 </defs>
 <g id="Layer_x0020_1">
  <metadata id="CorelCorpID_0Corel-Layer"/>
  <g id="_1637977952656">
   <g>
    <rect class="fil0" x="-0" y="-0" width="2318.09" height="2304.94"/>
    <g>
     <circle class="fil1" cx="1159.05" cy="885.14" r="294.06"/>
     <rect class="fil1" x="612.17" y="1299.42" width="1093.75" height="414.43" rx="805.33" ry="805.33"/>
    </g>
   </g>
   <rect class="fil2" x="30.83" y="48.02" width="2256.43" height="2256.43"/>
   <g>
    <path class="fil3 str0" d="M936.73 896.74c0.02,123.47 99.57,223.58 222.32,223.58 122.76,0 222.31,-100.12 222.31,-223.58 0,-123.46 -99.55,-223.58 -222.31,-223.58 -122.74,0 -222.29,100.12 -222.29,223.58"/>
    <path class="fil3 str0" d="M825.56 1679.32l0 -111.8c0.02,-123.49 99.57,-223.6 222.34,-223.6l222.32 0.02c122.76,-0.02 222.31,100.1 222.31,223.57l0 111.8"/>
   </g>
  </g>
 </g>
</svg>
