<?xml version="1.0" encoding="UTF-8"?>
<!DOCTYPE svg PUBLIC "-//W3C//DTD SVG 1.1//EN" "http://www.w3.org/Graphics/SVG/1.1/DTD/svg11.dtd">
<!-- Creator: CorelDRAW -->
<svg xmlns="http://www.w3.org/2000/svg" xml:space="preserve" width="246.224mm" height="219.175mm" version="1.1" style="shape-rendering:geometricPrecision; text-rendering:geometricPrecision; image-rendering:optimizeQuality; fill-rule:evenodd; clip-rule:evenodd"
viewBox="0 0 4472.72 3981.37"
 xmlns:xlink="http://www.w3.org/1999/xlink"
 xmlns:xodm="http://www.corel.com/coreldraw/odm/2003">
 <defs>
  <style type="text/css">
   <![CDATA[
    .fil0 {fill:none}
    .fil1 {fill:#4F8250}
    .fil2 {fill:white;fill-rule:nonzero}
   ]]>
  </style>
 </defs>
 <g id="Layer_x0020_1">
  <metadata id="CorelCorpID_0Corel-Layer"/>
  <g id="_2456092956832">
   <g>
    <rect class="fil0" width="4472.72" height="3981.37"/>
    <path class="fil1" d="M2263.49 2286.12c3.82,-0.4 8.02,-0.99 12.68,-1.8 42.82,-7.48 47.93,-19.1 86.46,-18.24 38.54,0.86 45.47,-2.12 91.02,14.72 45.55,16.83 73.27,47.53 100.01,39.61 26.73,-7.92 108.92,-43.57 109.91,-66.34 0.99,-22.77 -8.28,-49.15 6.11,-47.99 14.39,1.16 118.65,-2.51 125.58,0.47 6.93,2.97 19.73,6.03 19.73,6.03 -3.31,-6.61 -4.68,-12.07 -4.92,-15.68 -0.72,-10.75 -10.75,-11.46 7.88,-32.24 18.62,-20.77 93.12,-111.75 93.12,-111.75 0,0 -45.85,-29.37 -50.86,-42.26 -5.02,-12.89 4.3,-18.62 12.89,-30.8 8.6,-12.18 60.17,-38.68 68.77,-40.83 8.6,-2.15 10.03,-12.18 1.43,-26.5 -8.6,-14.33 -11.46,-34.38 -12.9,-41.55 -1.43,-7.16 -10.74,-11.46 -28.65,-13.61 -17.91,-2.15 -97.42,-55.16 -125.36,-68.05 -27.94,-12.89 -57.31,-26.5 -78.8,-30.09 -21.49,-3.58 -13.61,-6.45 -62.32,-25.79 -48.71,-19.34 -119.63,-48 -137.54,-55.16 -17.91,-7.16 -22.92,3.58 -55.87,-37.25 -32.95,-40.83 -42.98,-84.53 -48.71,-93.13 -5.73,-8.59 -73.07,-78.79 -97.42,-103.15 -24.36,-24.36 -30.09,-37.25 -42.98,-65.19 -12.89,-27.94 -29.37,-65.9 -30.8,-83.81 -1.43,-17.91 -2.15,-44.41 -12.9,-45.85 -10.74,-1.43 -29.37,-4.3 -46.56,-4.3 -17.19,0 -47.28,5.02 -69.48,0 -22.21,-5.02 -32.95,-3.58 -41.55,-9.31 -8.6,-5.73 -40.11,-58.74 -76.65,-61.6 -36.53,-2.87 -58.02,0.72 -68.05,9.31 -10.03,8.59 -17.91,17.19 -42.26,27.22 -24.36,10.03 -27.22,5.73 -27.22,5.73 0,0 -74.5,-76.65 -78.8,-93.84 -1.05,-4.21 -1.38,-10.11 -1.26,-16.6 0,0 -16.96,93.95 -18.47,125.78 -1.52,31.82 -3.03,44.7 -3.03,44.7l41.68 37.13c0,0 14.4,33.34 13.64,46.98 -0.76,13.64 -14.4,43.19 -19.7,49.25 -5.3,6.06 -84.11,50.01 -96.23,63.65 -12.12,13.64 8.63,39.81 11.47,48.3 2.83,8.49 23.22,33.41 30.01,52.67 6.8,19.25 -0.56,56.63 -0.56,69.65 0,11.49 -24.11,39.94 -29.8,46.49 0,0 -4.07,65.67 7.98,68.86 12.05,3.2 39.86,36.64 54.71,40.09 14.85,3.44 36.93,-8.52 36.93,-8.52 0,0 93.47,48.05 114.78,71.61 21.31,23.56 40.31,90.88 30.76,99.42 -9.55,8.54 -42.71,24.57 -42.71,24.57 0,0 17.12,44.59 42.02,69.12 24.9,24.52 57.41,16.88 57.41,16.88 0,0 18.98,61.11 30.86,70.02 11.88,8.91 70.42,43.52 89.11,45.55 18.69,2.03 71.29,12.87 80.2,30.69 8.91,17.82 19.3,54.28 29.65,57.59 9.22,2.95 14.24,12.4 45.55,9.12zm522.37 -641.9c-2.65,6.19 -23,36.27 -3.54,43.35 19.46,7.08 29.19,24.77 33.61,33.61 4.42,8.84 20.35,-14.15 20.35,-14.15 0,0 -1.77,-33.61 -11.5,-38.04 -9.73,-4.42 -38.92,-24.77 -38.92,-24.77zm-356.46 -73.54c25.45,29.58 38.52,73.59 68.78,84.6 30.26,11 96.98,11 112.11,8.25 15.13,-2.75 30.26,6.88 52.27,4.13 22.01,-2.75 41.27,-32.33 33.02,-39.21 -8.25,-6.88 -26.14,-42.64 -57.78,-54.34 -31.64,-11.69 -30.95,-35.76 -57.09,-18.57 -26.14,17.2 -34.39,22.7 -40.58,19.95 -6.19,-2.75 -24.07,-23.39 -34.39,-36.45 -10.32,-13.07 -28.2,-55.02 -27.51,-69.47 0.69,-14.45 1.38,-37.83 -10.32,-41.96 -11.69,-4.13 -87.35,-28.89 -87.35,-28.89l-31.64 6.88c4.81,5.5 48.83,40.58 48.15,60.52 -0.69,19.95 -2.07,25.45 4.13,41.96 6.19,16.51 2.75,33.01 28.2,62.59z"/>
   </g>
   <polygon class="fil2" points="2204.14,1773.37 2204.14,1754.78 2238.87,1754.78 2238.87,1859.81 2218.12,1859.81 2218.12,1773.37 "/>
  </g>
 </g>
</svg>
