<?xml version="1.0" encoding="UTF-8"?>
<!DOCTYPE svg PUBLIC "-//W3C//DTD SVG 1.1//EN" "http://www.w3.org/Graphics/SVG/1.1/DTD/svg11.dtd">
<!-- Creator: CorelDRAW -->
<svg xmlns="http://www.w3.org/2000/svg" xml:space="preserve" width="247.143mm" height="219.793mm" version="1.1" style="shape-rendering:geometricPrecision; text-rendering:geometricPrecision; image-rendering:optimizeQuality; fill-rule:evenodd; clip-rule:evenodd"
viewBox="0 0 7924.17 7047.23"
 xmlns:xlink="http://www.w3.org/1999/xlink"
 xmlns:xodm="http://www.corel.com/coreldraw/odm/2003">
 <defs>
  <style type="text/css">
   <![CDATA[
    .str0 {stroke:#4F8250;stroke-width:25.45;stroke-miterlimit:22.9256}
    .fil0 {fill:none}
    .fil1 {fill:white}
   ]]>
  </style>
 </defs>
 <g id="Layer_x0020_1">
  <metadata id="CorelCorpID_0Corel-Layer"/>
  <g id="_2456088744944">
   <rect class="fil0" x="15.76" width="7894.69" height="7027.43"/>
   <path class="fil1 str0" d="M2816.81 1642.39c42.31,34.61 309.13,229.97 309.13,229.97 0,0 -7.93,45.39 -8.54,80.7 -0.21,11.47 0.37,21.87 2.23,29.3 7.59,30.35 139.08,165.63 139.08,165.63 0,0 5.06,7.59 48.05,-10.12 42.99,-17.7 56.9,-32.87 74.6,-48.04 17.71,-15.17 55.63,-21.5 120.12,-16.44 64.49,5.06 120.11,98.62 135.29,108.74 15.17,10.12 34.14,7.59 73.33,16.44 39.2,8.86 92.3,0 122.64,0 30.35,0 63.22,5.06 82.18,7.59 18.97,2.53 20.23,49.31 22.76,80.92 2.53,31.61 31.61,98.62 54.37,147.93 22.76,49.32 32.87,72.07 75.86,115.06 42.99,42.99 161.84,166.9 171.96,182.07 10.12,15.17 27.81,92.3 85.98,164.37 58.17,72.07 67.01,53.1 98.62,65.75 31.61,12.64 156.79,63.22 242.77,97.36 85.98,34.14 72.07,39.19 110,45.52 37.93,6.32 89.77,30.34 139.08,53.1 49.31,22.76 189.66,116.32 221.27,120.12 31.61,3.79 48.04,11.38 50.57,24.02 2.53,12.65 7.59,48.05 22.76,73.33 15.17,25.29 12.64,42.99 -2.53,46.78 -15.17,3.79 -106.21,50.57 -121.38,72.07 -15.17,21.5 -31.61,31.61 -22.76,54.37 8.85,22.76 89.77,74.6 89.77,74.6 0,0 -131.5,160.58 -164.37,197.25 -32.87,36.67 -15.17,37.93 -13.91,56.9 0.54,8.04 4.25,21.3 14.03,37.28 13.3,21.73 37.81,48.49 80.8,73.99 74.6,44.25 324.95,83.45 389.43,88.51 64.48,5.06 92.3,30.34 92.3,30.34 0,0 25.29,112.53 37.93,217.47 6.58,54.63 11.45,84.24 15.85,106.69 4.06,20.67 7.72,35.26 11.96,57.68 8.85,46.79 118.85,142.87 171.96,188.39 53.11,45.52 54.4,77.01 63.17,100.4 8.78,23.39 35.1,46.8 52.65,61.42 17.55,14.62 254.43,52.64 310,73.11 55.57,20.47 52.64,14.62 78.96,38.02 26.32,23.4 5.85,29.25 38.02,99.44 32.17,70.19 49.72,78.96 78.96,116.98 29.24,38.02 119.91,73.11 143.3,111.13 23.4,38.02 2.92,20.47 2.92,70.19 0,49.72 -131.6,239.81 -131.6,239.81 0,0 -5.85,26.32 -2.92,67.27 2.92,40.94 70.19,140.38 70.19,140.38 0,0 -26.32,49.72 -38.02,67.27 -8.24,12.36 -26.63,39.22 -39.85,70.38 -5.55,13.08 -10.19,26.92 -12.79,40.76 -8.77,46.79 23.39,114.06 43.87,152.08 20.47,38.02 14.62,78.96 5.85,119.9 -8.77,40.94 -14.62,190.1 -23.4,277.84 -8.78,87.74 -8.78,122.83 -32.17,187.17 -23.39,64.34 -43.87,266.13 -43.87,266.13 0,0 -23.4,-5.85 -40.94,-11.7 -17.55,-5.85 -175.47,-149.15 -175.47,-149.15 0,0 -119.91,128.68 -140.38,128.68 -20.47,0 -70.19,-40.94 -99.43,-64.34 -29.24,-23.39 -228.12,-90.66 -228.12,-90.66 0,0 2.92,17.55 29.24,52.64 26.32,35.09 35.1,184.25 35.1,184.25 0,0 -20.47,-8.78 -29.24,-29.25 -8.78,-20.47 -190.1,-122.83 -219.34,-190.1 -26.13,-60.1 -311.37,-313.94 -371.88,-367.37 -7.21,-6.38 -11.23,-9.9 -11.23,-9.9 0,0 -38.02,0 -73.12,-29.24 -35.09,-29.25 -29.24,-17.55 -78.96,-52.64 -49.72,-35.09 -40.94,-49.71 -55.57,-87.74 -14.62,-38.02 -8.78,-2.92 -99.44,-61.41 -90.66,-58.49 -58.49,-43.87 -93.59,-73.11 -35.1,-29.25 -195.94,-116.98 -195.94,-116.98l-198.87 -184.25c0,0 -8.77,-58.49 -14.62,-93.59 -5.85,-35.1 -52.64,-58.49 -78.96,-90.66 -26.32,-32.17 -210.57,-119.91 -236.89,-155 -26.32,-35.09 -43.87,-52.64 -108.21,-143.3 -64.34,-90.66 -61.42,-64.34 -81.89,-131.61 -19,-62.43 -201.77,-213.05 -227.93,-234.36 -2.03,-1.65 -3.11,-2.53 -3.11,-2.53 0,0 -43.87,-76.04 -70.19,-119.91 -26.32,-43.87 -32.17,-134.53 -43.87,-157.92 -11.7,-23.39 -40.94,-198.87 -73.11,-263.21 -32.17,-64.34 -84.81,-105.28 -131.61,-198.87 -46.79,-93.59 -111.13,-222.27 -111.13,-248.59 0,-26.32 -111.14,-169.62 -111.14,-169.62 0,0 -157.93,-111.14 -207.64,-178.4 -49.72,-67.27 -26.32,-55.57 -52.64,-105.29 -26.32,-49.71 -14.62,-84.81 -49.72,-105.29 -35.1,-20.47 -157.92,-99.44 -195.94,-137.45 -35.87,-35.86 -43.1,-11.87 -70.81,-13.95 -1.67,-0.13 -3.41,-0.34 -5.23,-0.68 -32.17,-5.85 -225.19,-505.95 -233.96,-549.82 -8.77,-43.87 -5.85,-84.81 -5.85,-140.38 0,-55.57 -23.4,-81.89 -61.42,-213.5 -38.02,-131.61 -331.58,-235.97 -331.58,-235.97 0,0 -177.01,-80.92 -256.66,-136.55 -79.66,-55.63 -18.97,-24.02 -24.02,-42.99 -5.06,-18.97 -49.31,-220 -51.84,-227.59 -2.53,-7.59 -16.44,-10.12 -45.52,-35.4 -29.08,-25.28 -35.4,-34.14 -50.57,-61.96 -15.17,-27.82 -309.77,-372.98 -314.83,-380.57 -5.06,-7.59 -26.55,-25.29 -26.55,-25.29 0,0 -93.56,-53.1 -113.79,-55.63 -20.23,-2.53 -141.56,-1.17 -141.56,-1.17l-696.31 -802.42 -61.22 -269.32c0,0 222.33,-11.89 253.11,-8.04 30.77,3.85 107.69,28.84 153.84,44.23 46.15,15.38 82.69,88.46 126.92,113.45 44.23,25 151.92,59.61 307.68,50 155.76,-9.61 169.22,-23.08 201.91,-25 32.69,-1.92 84.61,-7.69 111.53,-5.77 26.92,1.92 123.07,51.92 148.07,61.54 25,9.62 115.38,46.15 159.61,63.46 44.23,17.3 50,26.92 88.46,63.46 38.46,36.54 50,82.69 96.15,157.69 39.31,63.88 134.42,212.86 161.76,255.63 4.75,7.44 7.46,11.67 7.46,11.67 0,0 57.69,73.07 103.84,100 46.15,26.92 69.22,75 96.15,105.76 26.92,30.77 46.15,46.15 90.38,63.46 44.23,17.31 349.98,224.99 417.28,286.53 67.3,61.54 101.92,75 188.45,134.61 86.53,59.61 46.15,38.46 88.46,73.07zm-1430.99 976.83c37.99,37.99 73.16,32.36 133.66,73.16 60.5,40.8 73.16,91.45 94.27,154.77 21.1,63.31 -49.24,256.06 -60.5,278.58 -11.26,22.51 -14.07,-22.51 -26.73,-53.47 -12.66,-30.95 -14.07,-73.16 -35.17,-122.4 -21.1,-49.25 -64.5,-65.43 -68,-69.63 -3.5,-4.2 -33.58,-24.48 -78.35,-99.33 -44.77,-74.84 -62.95,-51.06 -68.55,-60.85 -5.6,-9.79 -10.49,-33.58 -32.18,-71.35l-31.51 -40.73c0,0 25.32,-33.77 77.38,-40.8 52.06,-7.03 57.68,14.07 95.67,52.06zm-1022.84 -894.82c0,0 80.19,5.63 109.74,14.07 29.55,8.45 52.06,46.43 106.93,85.82 54.87,39.39 87.23,68.94 109.74,94.27 22.51,25.32 81.6,81.6 81.6,81.6 0,0 -125.22,-18.29 -161.8,-42.21 -36.58,-23.92 -43.62,-18.29 -137.88,-64.72 -94.27,-46.43 -22.51,-23.92 -49.24,-60.5 -26.73,-36.58 -71.75,-73.16 -71.75,-73.16l12.66 -35.17zm3854.65 744.47c0,0 133.54,43.7 154.18,50.99 20.64,7.28 19.43,48.56 18.21,74.06 -1.22,25.49 30.35,99.55 48.56,122.61 18.22,23.07 49.77,59.49 60.7,64.34 10.93,4.86 25.5,-4.86 71.63,-35.21 46.13,-30.35 44.92,12.14 100.76,32.78 55.84,20.64 87.41,83.77 101.98,95.91 14.57,12.14 -19.43,64.34 -58.27,69.2 -38.85,4.86 -65.56,-12.14 -92.26,-7.29 -26.71,4.85 -144.47,4.86 -197.88,-14.57 -53.42,-19.43 -76.48,-97.12 -121.4,-149.32 -44.92,-52.2 -38.85,-81.34 -49.78,-110.47 -10.93,-29.14 -8.49,-38.85 -7.28,-74.06 1.21,-35.21 -76.48,-97.12 -84.98,-106.83l55.84 -12.14zm715.38 433.3c0,0 51.53,35.91 68.7,43.72 17.17,7.81 20.3,67.14 20.3,67.14 0,0 -28.11,40.6 -35.91,24.98 -7.81,-15.61 -24.98,-46.84 -59.33,-59.33 -34.35,-12.49 1.56,-65.58 6.25,-76.51zm-2853.23 448.92c8.27,-4.14 93.67,-11.02 114.33,-11.02 20.66,0 27.55,9.64 31.68,20.66 4.13,11.02 -70.25,22.04 -97.8,26.17 -27.55,4.13 -84.03,-20.66 -84.03,-20.66 0,0 27.55,-11.02 35.81,-15.15zm-128.1 137.75c11.02,1.38 11.02,20.66 37.19,37.19 26.17,16.53 28.93,34.44 30.3,66.12 1.38,31.68 -66.12,208 -74.38,206.62 -8.27,-1.38 -6.89,-55.1 -8.27,-85.4 -1.38,-30.31 16.53,-75.76 30.31,-111.58 13.77,-35.82 -19.29,-52.35 -45.46,-92.29 0,0 19.28,-22.04 30.3,-20.66zm5590.47 1521.04c284.18,-40.93 368.3,145.5 368.3,145.5 0,0 -18.19,50.02 -56.83,106.85 -38.65,56.84 6.82,40.92 -11.37,84.12 -18.19,43.2 -77.3,84.12 -90.94,93.21 -13.64,9.1 0,-54.56 -22.74,-90.94 -22.74,-36.38 -38.65,-15.92 -118.22,13.64 -79.57,29.56 -70.48,29.55 -77.3,6.82 -6.82,-22.74 -15.92,-281.91 9.09,-359.21zm-827.54 -111.4c145.51,75.02 329.65,129.59 354.66,159.14 25.01,29.56 81.85,104.58 81.85,104.58 0,0 -81.85,-9.09 -122.77,-22.74 -40.92,-13.64 -84.12,-36.37 -97.76,2.27 -13.64,38.65 -31.83,61.38 -13.64,86.39 18.19,25.01 43.2,27.28 38.65,40.92 -4.55,13.64 -25.01,50.02 -75.02,34.11 -50.02,-15.92 -59.11,-61.38 -177.33,-93.21 -118.22,-31.83 -243.27,-59.11 -236.45,-104.58 6.82,-45.47 43.2,-61.39 13.64,-134.14 -29.55,-72.75 11.37,-113.67 -122.77,-179.6 -134.14,-65.93 -165.96,-72.75 -218.25,-72.75 -52.29,0 -81.85,-6.82 -106.85,-40.92 -25.01,-34.1 -25.01,-34.1 -25.01,-34.1 47.74,-18.19 150.05,-75.03 143.23,-113.67 -6.82,-38.65 -72.75,-68.2 27.28,-97.76 100.03,-29.56 250.09,-77.3 318.29,-61.38 68.2,15.92 36.38,50.01 77.3,134.13 40.92,84.12 100.03,277.36 109.13,320.56 9.09,43.2 -113.68,-2.27 31.83,72.75zm-3794.55 105.61c0,0 66.12,59.24 79.89,68.88 13.78,9.64 81.27,103.31 118.47,139.12 37.19,35.81 78.52,74.39 78.52,74.39 0,0 -44.08,6.89 -57.85,24.79 -13.77,17.91 12.4,79.89 12.4,79.89 0,0 -13.77,15.15 -16.53,5.51 -2.76,-9.64 -24.8,-42.7 -42.7,-75.76 -17.91,-33.06 -28.93,-34.44 -41.33,-78.51 -12.4,-44.08 -13.78,-63.37 -22.04,-73.01 -8.27,-9.64 -92.29,-44.08 -96.43,-63.37 -4.13,-19.29 -12.4,-101.94 -12.4,-101.94zm-252.08 -312.69c0,0 16.53,6.89 39.95,22.04 23.42,15.15 95.05,139.13 97.81,147.39 2.75,8.26 -96.43,-49.59 -128.11,-67.5 -31.68,-17.91 -13.78,-73.01 -9.64,-101.94zm-549.62 -691.5c0,0 64.74,8.26 111.58,56.47 46.83,48.21 194.23,373.31 201.12,403.61 6.89,30.31 -41.33,84.03 -61.99,84.03 -20.66,0 -220.4,-225.91 -249.33,-279.63 -28.92,-53.72 -1.38,-249.33 -1.38,-264.48z"/>
  </g>
 </g>
</svg>
