<?xml version="1.0" encoding="UTF-8"?>
<!DOCTYPE svg PUBLIC "-//W3C//DTD SVG 1.1//EN" "http://www.w3.org/Graphics/SVG/1.1/DTD/svg11.dtd">
<!-- Creator: CorelDRAW -->
<svg xmlns="http://www.w3.org/2000/svg" xml:space="preserve" width="246.224mm" height="219.175mm" version="1.1" style="shape-rendering:geometricPrecision; text-rendering:geometricPrecision; image-rendering:optimizeQuality; fill-rule:evenodd; clip-rule:evenodd"
viewBox="0 0 3096.6 2756.43"
 xmlns:xlink="http://www.w3.org/1999/xlink"
 xmlns:xodm="http://www.corel.com/coreldraw/odm/2003">
 <defs>
  <style type="text/css">
   <![CDATA[
    .fil0 {fill:none}
    .fil1 {fill:#6DAA76}
    .fil2 {fill:white;fill-rule:nonzero}
   ]]>
  </style>
 </defs>
 <g id="Layer_x0020_1">
  <metadata id="CorelCorpID_0Corel-Layer"/>
  <g id="_2456809845344">
   <g>
    <rect class="fil0" width="3096.6" height="2756.43"/>
    <path class="fil1" d="M1431.34 1888.94c0.02,-0.04 0.03,-0.09 0.05,-0.13l-0.05 0.13zm-260.82 100.88c-5.4,-3.78 -31.34,-27.02 -31.34,-27.02 0,0 3.24,32.42 4.86,39.98 1.62,7.56 34.58,21.07 37.82,24.85 3.24,3.78 3.78,11.35 8.65,28.64 4.86,17.29 9.19,17.83 16.21,30.8 7.02,12.97 15.67,25.94 16.75,29.72 1.08,3.78 6.48,-2.16 6.48,-2.16 0,0 -10.26,-24.31 -4.86,-31.34 5.4,-7.02 22.69,-9.73 22.69,-9.73 0,0 -16.21,-15.13 -30.8,-29.18 -14.59,-14.05 -41.06,-50.79 -46.47,-54.57zm-114.55 -141.02c-9.19,-5.94 -15.67,-8.65 -15.67,-8.65 -1.62,11.35 -8.65,32.96 3.78,39.98 12.43,7.02 51.33,29.72 50.25,26.47 -1.08,-3.24 -29.18,-51.87 -38.36,-57.81zm-108.6 -99.42c-2.7,-11.89 -60.52,-139.4 -78.89,-158.31 -18.37,-18.91 -43.76,-22.15 -43.76,-22.15 0,5.94 -10.81,82.67 0.54,103.74 11.35,21.07 89.69,109.68 97.8,109.68 8.1,0 27.02,-21.07 24.31,-32.96zm619.72 -166.62c-21.68,2.27 -25.16,-4.28 -31.54,-6.32 -7.16,-2.29 -14.35,-27.53 -20.52,-39.87 -6.17,-12.34 -42.59,-19.85 -55.53,-21.25 -12.94,-1.4 -53.47,-25.36 -61.7,-31.53 -8.22,-6.17 -21.37,-48.48 -21.37,-48.48 0,0 -22.51,5.29 -39.74,-11.69 -17.24,-16.98 -29.09,-47.85 -29.09,-47.85 0,0 22.96,-11.09 29.57,-17.01 6.61,-5.91 -6.54,-52.52 -21.3,-68.83 -14.75,-16.31 -79.47,-49.58 -79.47,-49.58 0,0 -15.29,8.28 -25.57,5.9 -10.28,-2.38 -29.54,-25.54 -37.88,-27.75 -8.34,-2.21 -5.53,-47.68 -5.53,-47.68 -0.53,0.61 -0.83,0.94 -0.83,0.94l-87.22 -28.89c0,0 17.45,55.61 21.26,59.97 3.82,4.36 -12.54,21.81 -16.35,23.44 -3.82,1.63 -44.7,2.73 -49.61,3.27 -3.48,0.39 -55.27,35.18 -85.1,55.39 10.87,0.81 13.71,-8.59 27.77,5.47 14.91,14.91 63.09,45.88 76.86,53.91 13.77,8.03 9.18,21.8 19.5,41.3 10.32,19.5 1.15,14.91 20.65,41.3 19.5,26.38 81.45,69.97 81.45,69.97 0,0 43.59,56.21 43.59,66.53 0,10.32 25.24,60.8 43.59,97.51 18.35,36.71 39,52.77 51.62,78.01 12.62,25.24 24.09,94.07 28.68,103.24 4.59,9.18 6.88,44.74 17.21,61.94 10.32,17.21 27.53,47.03 27.53,47.03 0,0 0.43,0.34 1.22,0.99 8.43,-15.84 13.89,-25.99 15.04,-27.52 6.54,-8.72 22.35,-27.26 26.17,-33.8 0.33,-0.57 0.63,-1.2 0.88,-1.87l4.99 2.44 -1.71 -0.84c-0.91,-8.44 -2.86,-26.48 -3.39,-30.78 -0.7,-5.68 -6.29,-13.61 -10.58,-21.33 -4.29,-7.72 -16.78,-19.83 -18.58,-21.16 -1.8,-1.33 -2.54,-8.77 -3.19,-13.66 -0.65,-4.89 -6.63,-28.7 -10.25,-32.37 -3.61,-3.67 -0.29,-8.29 5.06,-13 5.35,-4.71 16.38,0.7 26.11,2.12 9.73,1.42 12.57,2.87 28.13,0.46 15.56,-2.41 14.74,-4.45 18.41,-9.09 3.67,-4.64 19.49,-10.8 26.03,-14.95 6.54,-4.15 17.76,-10.72 24.57,-16.38 6.81,-5.67 22.07,-12.92 22.94,-20.61 0.88,-7.7 1.13,-21.18 4.49,-35.87 3.37,-14.69 18.07,-28.77 20.15,-34.74 2.07,-5.97 3.17,-21.78 3.64,-25.87 0.41,-3.55 -0.32,-15.28 -1.08,-20.56z"/>
   </g>
   <path class="fil2" d="M1284.11 1527.89c6.38,-5.32 11.47,-9.76 15.26,-13.32 3.79,-3.56 6.95,-7.26 9.48,-11.12 2.53,-3.86 3.79,-7.65 3.79,-11.37 0,-3.39 -0.8,-6.05 -2.39,-7.98 -1.6,-1.93 -4.06,-2.89 -7.38,-2.89 -3.33,0 -5.89,1.11 -7.68,3.34 -1.8,2.23 -2.73,5.27 -2.79,9.13l-13.57 0c0.27,-7.98 2.64,-14.03 7.13,-18.16 4.49,-4.12 10.19,-6.18 17.11,-6.18 7.58,0 13.4,2.01 17.46,6.03 4.06,4.02 6.08,9.33 6.08,15.91 0,5.19 -1.4,10.14 -4.19,14.86 -2.79,4.72 -5.99,8.83 -9.58,12.32 -3.59,3.49 -8.28,7.7 -14.07,12.62l29.43 0 0 11.57 -49.28 0 0 -10.37 5.19 -4.39z"/>
  </g>
 </g>
</svg>
